<mxfile host="Electron" agent="Mozilla/5.0 (X11; Linux x86_64) AppleWebKit/537.36 (KHTML, like Gecko) draw.io/27.0.9 Chrome/134.0.6998.205 Electron/35.4.0 Safari/537.36" version="27.0.9">
  <diagram name="Page-1" id="FiRNX-xCi8xquzkqKb8u">
    <mxGraphModel dx="868" dy="533" grid="1" gridSize="10" guides="1" tooltips="1" connect="1" arrows="1" fold="1" page="1" pageScale="1" pageWidth="850" pageHeight="1100" math="0" shadow="0">
      <root>
        <mxCell id="0" />
        <mxCell id="1" parent="0" />
        <mxCell id="6U7lcoBqVKZ4HyzqOt8d-1" value="CPU" style="rounded=1;whiteSpace=wrap;html=1;labelPosition=center;verticalLabelPosition=top;align=center;verticalAlign=bottom;fillColor=#f5f5f5;fontColor=#333333;strokeColor=#666666;shadow=1;" vertex="1" parent="1">
          <mxGeometry x="120" y="80" width="120" height="120" as="geometry" />
        </mxCell>
        <mxCell id="6U7lcoBqVKZ4HyzqOt8d-2" value="Carte Réseau" style="rounded=1;whiteSpace=wrap;html=1;align=center;labelPosition=center;verticalLabelPosition=top;verticalAlign=bottom;fillColor=#f5f5f5;fontColor=#333333;strokeColor=#666666;shadow=1;" vertex="1" parent="1">
          <mxGeometry x="280" y="80" width="200" height="120" as="geometry" />
        </mxCell>
        <mxCell id="6U7lcoBqVKZ4HyzqOt8d-3" value="Mémoire tampon" style="rounded=0;whiteSpace=wrap;html=1;" vertex="1" parent="1">
          <mxGeometry x="393" y="115" width="65" height="50" as="geometry" />
        </mxCell>
        <mxCell id="6U7lcoBqVKZ4HyzqOt8d-4" value="Adresse" style="rounded=0;whiteSpace=wrap;html=1;" vertex="1" parent="1">
          <mxGeometry x="300" y="100" width="70" height="20" as="geometry" />
        </mxCell>
        <mxCell id="6U7lcoBqVKZ4HyzqOt8d-5" value="Taille" style="rounded=0;whiteSpace=wrap;html=1;" vertex="1" parent="1">
          <mxGeometry x="300" y="130" width="70" height="20" as="geometry" />
        </mxCell>
        <mxCell id="6U7lcoBqVKZ4HyzqOt8d-6" value="Commande" style="rounded=0;whiteSpace=wrap;html=1;" vertex="1" parent="1">
          <mxGeometry x="300" y="160" width="70" height="20" as="geometry" />
        </mxCell>
        <mxCell id="6U7lcoBqVKZ4HyzqOt8d-7" value="RAM" style="rounded=1;whiteSpace=wrap;html=1;labelPosition=center;verticalLabelPosition=top;align=center;verticalAlign=bottom;fillColor=#f5f5f5;fontColor=#333333;strokeColor=#666666;shadow=1;" vertex="1" parent="1">
          <mxGeometry x="520" y="80" width="120" height="120" as="geometry" />
        </mxCell>
        <mxCell id="6U7lcoBqVKZ4HyzqOt8d-8" value="" style="endArrow=none;html=1;rounded=0;" edge="1" parent="1">
          <mxGeometry width="50" height="50" relative="1" as="geometry">
            <mxPoint x="140" y="240" as="sourcePoint" />
            <mxPoint x="610" y="240" as="targetPoint" />
          </mxGeometry>
        </mxCell>
        <mxCell id="6U7lcoBqVKZ4HyzqOt8d-20" value="Bus" style="edgeLabel;html=1;align=center;verticalAlign=middle;resizable=0;points=[];" vertex="1" connectable="0" parent="6U7lcoBqVKZ4HyzqOt8d-8">
          <mxGeometry x="0.8948" y="-1" relative="1" as="geometry">
            <mxPoint x="51" as="offset" />
          </mxGeometry>
        </mxCell>
        <mxCell id="6U7lcoBqVKZ4HyzqOt8d-9" value="" style="endArrow=none;html=1;rounded=0;entryX=0.5;entryY=1;entryDx=0;entryDy=0;endFill=1;startFill=1;startArrow=oval;" edge="1" parent="1" target="6U7lcoBqVKZ4HyzqOt8d-1">
          <mxGeometry width="50" height="50" relative="1" as="geometry">
            <mxPoint x="180" y="240" as="sourcePoint" />
            <mxPoint x="450" y="170" as="targetPoint" />
          </mxGeometry>
        </mxCell>
        <mxCell id="6U7lcoBqVKZ4HyzqOt8d-10" value="" style="endArrow=none;html=1;rounded=0;entryX=0.5;entryY=1;entryDx=0;entryDy=0;startArrow=oval;startFill=1;" edge="1" parent="1" target="6U7lcoBqVKZ4HyzqOt8d-2">
          <mxGeometry width="50" height="50" relative="1" as="geometry">
            <mxPoint x="380" y="240" as="sourcePoint" />
            <mxPoint x="450" y="170" as="targetPoint" />
          </mxGeometry>
        </mxCell>
        <mxCell id="6U7lcoBqVKZ4HyzqOt8d-11" value="" style="endArrow=none;html=1;rounded=0;entryX=0.5;entryY=1;entryDx=0;entryDy=0;startArrow=oval;startFill=1;" edge="1" parent="1" target="6U7lcoBqVKZ4HyzqOt8d-7">
          <mxGeometry width="50" height="50" relative="1" as="geometry">
            <mxPoint x="580" y="240" as="sourcePoint" />
            <mxPoint x="460" y="290" as="targetPoint" />
          </mxGeometry>
        </mxCell>
        <mxCell id="6U7lcoBqVKZ4HyzqOt8d-15" value="" style="curved=1;endArrow=classic;html=1;rounded=0;entryX=0.5;entryY=1;entryDx=0;entryDy=0;exitX=0.75;exitY=1;exitDx=0;exitDy=0;fillColor=#f5f5f5;strokeColor=light-dark(#000000, #959595);" edge="1" parent="1" source="6U7lcoBqVKZ4HyzqOt8d-1" target="6U7lcoBqVKZ4HyzqOt8d-6">
          <mxGeometry width="50" height="50" relative="1" as="geometry">
            <mxPoint x="280" y="370" as="sourcePoint" />
            <mxPoint x="330" y="320" as="targetPoint" />
            <Array as="points">
              <mxPoint x="210" y="230" />
              <mxPoint x="270" y="230" />
              <mxPoint x="335" y="230" />
            </Array>
          </mxGeometry>
        </mxCell>
        <mxCell id="6U7lcoBqVKZ4HyzqOt8d-17" value="1. Le CPU programme&lt;div&gt;les registres du périphériques par MMIO&lt;/div&gt;" style="edgeLabel;html=1;align=center;verticalAlign=middle;resizable=0;points=[];" vertex="1" connectable="0" parent="6U7lcoBqVKZ4HyzqOt8d-15">
          <mxGeometry x="-0.4602" relative="1" as="geometry">
            <mxPoint x="35" y="30" as="offset" />
          </mxGeometry>
        </mxCell>
        <mxCell id="6U7lcoBqVKZ4HyzqOt8d-16" value="" style="curved=1;endArrow=classic;html=1;rounded=0;entryX=0.25;entryY=1;entryDx=0;entryDy=0;exitX=0.5;exitY=1;exitDx=0;exitDy=0;fillColor=#f5f5f5;strokeColor=light-dark(#000000, #959595);" edge="1" parent="1" source="6U7lcoBqVKZ4HyzqOt8d-3" target="6U7lcoBqVKZ4HyzqOt8d-7">
          <mxGeometry width="50" height="50" relative="1" as="geometry">
            <mxPoint x="450" y="290" as="sourcePoint" />
            <mxPoint x="565" y="290" as="targetPoint" />
            <Array as="points">
              <mxPoint x="426" y="200" />
              <mxPoint x="426" y="230" />
              <mxPoint x="490" y="230" />
              <mxPoint x="550" y="230" />
            </Array>
          </mxGeometry>
        </mxCell>
        <mxCell id="6U7lcoBqVKZ4HyzqOt8d-18" value="2. Le périphérique transfère les données&amp;nbsp;" style="edgeLabel;html=1;align=center;verticalAlign=middle;resizable=0;points=[];" vertex="1" connectable="0" parent="6U7lcoBqVKZ4HyzqOt8d-16">
          <mxGeometry x="-0.2899" y="3" relative="1" as="geometry">
            <mxPoint x="62" y="33" as="offset" />
          </mxGeometry>
        </mxCell>
      </root>
    </mxGraphModel>
  </diagram>
</mxfile>
